<?xml version="1.0" encoding="UTF-8" standalone="no"?>
<svg
   xmlns:dc="http://purl.org/dc/elements/1.1/"
   xmlns:cc="http://creativecommons.org/ns#"
   xmlns:rdf="http://www.w3.org/1999/02/22-rdf-syntax-ns#"
   xmlns:svg="http://www.w3.org/2000/svg"
   xmlns="http://www.w3.org/2000/svg"
   xmlns:sodipodi="http://sodipodi.sourceforge.net/DTD/sodipodi-0.dtd"
   xmlns:inkscape="http://www.inkscape.org/namespaces/inkscape"
   width="100%"
   height="100%"
   viewBox="0 0 1000 1000"
   version="1.1"
   xml:space="preserve"
   style="fill-rule:evenodd;clip-rule:evenodd;stroke-linejoin:round;stroke-miterlimit:1.41421;"
   id="svg2"
   inkscape:version="0.91 r13725"
   sodipodi:docname="mastodon.svg"><metadata
     id="metadata17"><rdf:RDF><cc:Work
         rdf:about=""><dc:format>image/svg+xml</dc:format><dc:type
           rdf:resource="http://purl.org/dc/dcmitype/StillImage" /><dc:title></dc:title></cc:Work></rdf:RDF></metadata><defs
     id="defs15" /><sodipodi:namedview
     pagecolor="#ffffff"
     bordercolor="#666666"
     borderopacity="1"
     objecttolerance="10"
     gridtolerance="10"
     guidetolerance="10"
     inkscape:pageopacity="0"
     inkscape:pageshadow="2"
     inkscape:window-width="1174"
     inkscape:window-height="738"
     id="namedview13"
     showgrid="false"
     inkscape:zoom="0.3337544"
     inkscape:cx="740.76815"
     inkscape:cy="400.71416"
     inkscape:window-x="54"
     inkscape:window-y="20"
     inkscape:window-maximized="0"
     inkscape:current-layer="g7" /><clipPath
     id="_clip1"><rect
       x="33.6"
       y="-0.035"
       width="932.844"
       height="1000"
       id="rect5" /></clipPath><g
     clip-path="url(#_clip1)"
     id="g7"><path
       style="fill:#ffffff;fill-rule:nonzero;fill-opacity:1"
       d="M 498.54688 -0.03515625 C 370.69387 1.0098438 247.70911 14.851625 176.03711 47.765625 C 176.03711 47.765625 33.896484 111.35025 33.896484 328.28125 C 33.896484 377.95625 32.925047 437.35089 34.498047 500.33789 C 39.660047 712.48489 73.396688 921.56447 269.55469 973.48047 C 359.99869 997.41847 437.65045 1002.4272 500.18945 998.99023 C 613.60245 992.70223 677.26953 958.51758 677.26953 958.51758 L 673.5293 876.23633 C 673.5293 876.23633 592.48194 901.79173 501.46094 898.67773 C 411.28094 895.58573 316.08014 888.95123 301.49414 778.24023 C 300.14714 768.51523 299.47461 758.11727 299.47461 747.19727 C 299.47461 747.19727 387.99845 768.83366 500.18945 773.97266 C 568.79045 777.11966 633.12384 769.9542 698.46484 762.1582 C 823.76984 747.1972 932.87294 669.99608 946.58594 599.45508 C 968.19194 488.33408 966.4082 328.28125 966.4082 328.28125 C 966.4082 111.35025 824.27148 47.765625 824.27148 47.765625 C 752.60548 14.851625 629.5405 1.0098437 501.6875 -0.03515625 L 498.54688 -0.03515625 z M 353.84961 169.46484 C 407.10561 169.46484 447.43556 189.933 474.10156 230.875 L 500.02344 274.32617 L 525.94922 230.875 C 552.60922 189.933 592.94017 169.46484 646.20117 169.46484 C 692.22617 169.46484 729.30795 185.64408 757.62695 217.20508 C 785.07995 248.76608 798.74805 291.42637 798.74805 345.10938 L 798.74805 607.77734 L 694.67773 607.77734 L 694.67773 352.83008 C 694.67773 299.08708 672.06308 271.81055 626.83008 271.81055 C 576.81808 271.81055 551.75391 304.16834 551.75391 368.15234 L 551.75391 507.69922 L 448.29688 507.69922 L 448.29688 368.15234 C 448.29688 304.16834 423.22684 271.81055 373.21484 271.81055 C 327.98184 271.81055 305.36719 299.08708 305.36719 352.83008 L 305.36719 607.77734 L 201.29883 607.77734 L 201.29883 345.10938 C 201.29883 291.42638 214.96778 248.76608 242.42578 217.20508 C 270.73978 185.64408 307.81961 169.46484 353.84961 169.46484 z "
       id="path9" /></g></svg>